<?xml version="1.0" standalone="no"?>
<!DOCTYPE svg PUBLIC "-//W3C//DTD SVG 20010904//EN"
 "http://www.w3.org/TR/2001/REC-SVG-20010904/DTD/svg10.dtd">
<svg version="1.0" xmlns="http://www.w3.org/2000/svg"
 width="500.000000pt" height="500.000000pt" viewBox="0 0 500.000000 500.000000"
 preserveAspectRatio="xMidYMid meet">
<metadata>
Created by potrace 1.14, written by Peter Selinger 2001-2017
</metadata>
<g transform="translate(0.000000,500.000000) scale(0.100000,-0.100000)"
fill="#000000" stroke="none">
<path d="M2730 4063 c-30 -15 -90 -62 -132 -103 -42 -41 -100 -97 -127 -124
-119 -117 -121 -243 -6 -340 77 -63 141 -82 307 -91 133 -6 150 -5 189 13 71
32 118 96 159 216 29 85 26 121 -17 207 -21 42 -44 90 -51 107 -16 36 -110
113 -161 130 -54 19 -103 14 -161 -15z"/>
<path d="M1495 3903 c-53 -9 -67 -15 -99 -43 -50 -45 -94 -119 -107 -181 -5
-30 -10 -111 -10 -182 -1 -119 1 -130 25 -171 28 -49 75 -82 127 -93 19 -3 46
-18 61 -32 49 -46 134 -63 195 -40 15 5 53 30 83 53 30 24 74 53 97 65 74 37
114 112 116 219 1 63 -9 87 -82 196 -48 73 -113 128 -196 166 -51 23 -174 48
-210 43z"/>
<path d="M3670 3587 c-39 -21 -173 -126 -189 -150 -29 -41 -40 -111 -30 -184
24 -166 35 -185 137 -250 152 -96 193 -102 314 -44 84 40 106 74 143 225 30
122 34 210 12 252 -56 108 -293 200 -387 151z"/>
<path d="M2417 3298 c-79 -9 -154 -34 -236 -81 -36 -21 -53 -25 -91 -20 -56 7
-114 -16 -180 -71 -25 -21 -77 -61 -117 -89 -139 -101 -355 -312 -443 -433
-19 -26 -65 -83 -101 -125 -36 -42 -79 -98 -95 -123 -16 -26 -49 -75 -74 -109
-25 -35 -52 -79 -62 -98 -79 -163 -114 -251 -148 -371 -35 -122 -40 -152 -40
-242 0 -168 45 -271 172 -392 79 -75 123 -104 191 -126 58 -19 98 -21 612 -27
303 -4 556 -11 564 -15 7 -5 111 -10 230 -11 181 -3 232 0 311 16 86 17 246
36 465 54 234 20 620 87 692 122 92 43 249 243 300 381 20 55 26 92 30 207 5
129 3 148 -21 245 -46 179 -94 263 -253 436 -90 97 -250 229 -363 298 -50 30
-77 49 -167 119 -34 26 -65 47 -69 47 -4 0 -30 17 -58 38 -68 51 -234 150
-309 184 -21 10 -51 27 -67 38 -15 11 -84 38 -152 59 -67 21 -146 48 -174 59
-44 18 -216 45 -256 41 -7 -1 -48 -6 -91 -11z"/>
<path d="M609 3215 c-56 -18 -113 -76 -128 -132 -22 -75 -24 -146 -7 -202 9
-30 16 -68 16 -85 1 -40 39 -129 75 -174 34 -42 136 -92 188 -92 94 0 173 68
252 216 45 87 55 114 55 155 0 65 -19 108 -64 144 -21 17 -54 47 -74 69 -47
49 -155 103 -218 110 -30 4 -67 0 -95 -9z"/>
</g>
</svg>
